<svg width="45" height="38" viewBox="0 0 45 38" fill="none" xmlns="http://www.w3.org/2000/svg">
<path d="M31.3363 0.832535C32.1201 0.976107 32.9129 1.08533 33.6867 1.27294C39.552 2.66726 43.9371 7.51611 44.6127 13.3338C45.048 16.9928 43.9894 20.6716 41.6628 23.5846C39.3363 26.4976 35.9262 28.4138 32.161 28.9241C31.5462 29.0057 30.9258 29.0417 30.3053 29.0316C29.9225 29.0316 29.7143 29.1435 29.5243 29.4658C27.9313 32.1735 26.3193 34.8714 24.7127 37.5693C24.6454 37.682 24.5754 37.7921 24.4472 38V24.6558H24.9118C26.6981 24.6558 28.4863 24.6558 30.2762 24.6558C35.1723 24.6487 39.5347 20.8788 40.0839 16.1815C40.7067 10.8473 37.0835 6.20635 31.6082 5.34051C31.1296 5.26857 30.646 5.23265 30.1616 5.23305C28.2705 5.2216 26.3793 5.22865 24.4336 5.22865V0.832535H31.3363Z" fill="#E2504B"/>
<path d="M21.1577 0.832535V5.22864H15.457C10.3008 5.22864 5.87113 9.09715 5.43652 13.9777C4.98192 19.0723 8.46602 23.5618 13.604 24.4831C14.199 24.5881 14.8022 24.6432 15.4069 24.6478C17.2981 24.669 19.1893 24.6557 21.1204 24.6557V28.9832C21.0986 29.0025 21.0877 29.0219 21.0768 29.021C18.2228 28.9691 15.3488 29.3002 12.5166 28.7682C6.47666 27.6338 1.74876 22.7224 0.973197 16.8051C-0.021481 9.25218 5.18467 2.37923 12.9166 1.03864C13.3603 0.962013 13.8067 0.901238 14.2513 0.832535H21.1577Z" fill="#E2504B"/>
</svg>
